<svg xmlns="http://www.w3.org/2000/svg" width="1412" height="477" viewBox="0 0 1412 477" fill="none"><g clip-path="url(#clip0_402_2)"><path d="M80.426 177.346H129.166C155.882 177.346 172.583 184.613 183.002 195.035C193.22 205.255 197.937 218.629 197.937 235.334C197.937 255.975 190.091 274.825 175.333 289.587C158.834 306.09 135.044 314.947 103.207 314.947H43.4673L80.4008 177.371L80.426 177.346ZM108.328 274.825C122.279 274.825 134.262 270.687 141.326 263.621C147.027 257.918 151.165 248.682 151.165 240.229C151.165 232.76 148.995 227.839 145.463 224.306C141.149 219.991 134.262 217.417 123.263 217.417H115.594L100.28 274.8H108.328V274.825Z" fill="white"></path><path d="M204.446 268.163C204.446 261.098 205.43 253.426 207.397 245.957L225.864 177.371H272.637L253.388 248.91C252.404 252.846 251.824 256.581 251.824 259.71C251.824 271.116 258.509 276.995 270.694 276.995C276.395 276.995 281.693 275.027 285.427 271.292C289.564 267.154 292.314 261.855 295.266 251.256L315.12 177.346H361.892L340.096 258.322C335.176 276.591 328.112 289.965 318.475 299.605C305.508 312.575 285.856 317.698 264.059 317.698C225.334 317.698 204.521 299.226 204.521 268.163H204.446Z" fill="white"></path><path d="M375.642 177.346H436.541C478.798 177.346 489.015 192.865 489.015 209.772C489.015 226.678 477.814 240.431 456.799 245.932C469.766 249.263 479.202 258.902 479.202 273.059C479.202 296.249 460.735 314.922 413.584 314.922H338.708L375.642 177.346ZM414.946 280.149C426.148 280.149 432.833 275.229 432.833 268.365C432.833 262.46 427.914 259.71 418.1 259.71H398.246L392.746 280.149H414.946ZM427.131 231.397C438.913 231.397 444.236 226.098 444.236 220.193C444.236 214.288 439.922 212.144 430.083 212.144H411.011L405.915 231.397H427.131Z" fill="white"></path><path d="M562.958 176.361H608.545L629.383 314.922H580.466L578.12 296.45H529.986L518.002 314.922H467.9L563.009 176.361H562.958ZM575.522 263.823L571.788 230.413L550.37 263.823H575.522Z" fill="white"></path><path d="M670.076 177.346H716.041L679.107 314.922H633.142L670.076 177.346Z" fill="white"></path><path d="M95.3359 335.336H141.049L161.937 474.25H112.894L110.523 455.728H62.2622L50.2538 474.25H0L95.3359 335.336ZM107.95 422.999L104.216 389.514L82.7472 422.999H107.95Z" fill="white"></path><path d="M169.833 427.339C169.833 420.248 170.817 412.552 172.785 405.083L191.302 336.32H238.176L218.876 408.035C217.892 411.972 217.312 415.706 217.312 418.861C217.312 430.292 223.998 436.196 236.233 436.196C241.935 436.196 247.258 434.228 250.991 430.493C255.129 426.355 257.879 421.031 260.855 410.407L280.76 336.32H327.633L305.761 417.498C300.841 435.818 293.752 449.217 284.09 458.882C271.098 471.877 251.395 477 229.522 477C190.722 477 169.833 458.478 169.833 427.339Z" fill="white"></path><path d="M366.282 375.332H325.691L336.135 336.32H463.384L452.94 375.332H412.374L385.784 474.249H339.692L366.282 375.332Z" fill="white"></path><path d="M450.821 414.546C450.821 371.799 485.686 333.569 531.979 333.569C572.545 333.569 600.523 360.772 600.523 396.024C600.523 438.77 565.658 477 519.365 477C478.798 477 450.821 449.798 450.821 414.546ZM554.23 400.162C554.23 385.577 545.349 374.146 528.825 374.146C509.526 374.146 497.114 393.071 497.114 410.407C497.114 424.992 505.969 436.423 522.518 436.423C541.817 436.423 554.23 417.498 554.23 400.162Z" fill="white"></path><path d="M630.115 336.32H678.956C705.748 336.32 722.474 343.612 732.918 354.059C743.161 364.304 747.878 377.704 747.878 394.459C747.878 415.151 740.007 434.051 725.224 448.839C708.674 465.392 684.834 474.249 652.921 474.249H593.055L630.09 336.32H630.115ZM658.092 434.051C672.069 434.051 684.102 429.913 691.191 422.822C696.893 417.119 701.055 407.858 701.055 399.38C701.055 391.885 698.886 386.965 695.354 383.432C691.015 379.092 684.128 376.543 673.103 376.543H665.409L650.045 434.077H658.118L658.092 434.051Z" fill="white"></path><path d="M777.092 336.32H830.852C856.257 336.32 872.428 341.846 881.661 351.107C889.355 358.778 892.509 369.048 892.509 379.874C892.509 401.348 881.283 419.87 854.087 428.349L873.184 474.249H823.536L808.172 434.834H796.744L786.098 474.249H740.007L777.041 336.32H777.092ZM822.199 401.928C837.563 401.928 845.636 394.838 845.636 386.157C845.636 383.407 844.652 380.833 842.684 378.865C840.136 376.291 835.595 374.928 829.086 374.928H812.739L805.448 401.928H822.199Z" fill="white"></path><path d="M896.899 414.546C896.899 371.799 931.764 333.569 978.057 333.569C1018.62 333.569 1046.6 360.772 1046.6 396.024C1046.6 438.77 1011.74 477 965.443 477C924.877 477 896.899 449.798 896.899 414.546ZM1000.31 400.162C1000.31 385.577 991.428 374.146 974.903 374.146C955.604 374.146 943.192 393.071 943.192 410.407C943.192 424.992 952.047 436.423 968.596 436.423C987.896 436.423 1000.31 417.498 1000.31 400.162Z" fill="white"></path><path d="M1076.19 336.32H1121.7L1138.25 384.795L1180.79 336.32H1231.42L1194.38 474.249H1148.5L1166.81 405.89L1121.91 454.945H1121.12L1102.61 405.89L1084.29 474.249H1039.18L1076.22 336.32H1076.19Z" fill="white"></path><path d="M1246.43 336.32H1364.02L1353.77 374.146H1281.47L1277.74 388.126H1345.1L1336.24 421.409H1268.88L1264.75 436.373H1338.01L1327.97 474.199H1209.4L1246.43 336.27V336.32Z" fill="white"></path><path d="M1396.31 167.529C1395.2 170.507 1393.31 175.528 1360.71 175.907C1322.84 176.462 1283.46 163.82 1271.53 158.95C1253.65 151.657 1192.97 128.013 1163.25 129.022C1135.38 130.031 1064.23 155.114 1051.17 165.132C1046.02 169.094 1042.56 175.957 1041.71 183.982C1040.75 192.839 1043.19 201.469 1048.42 207.677C1062.32 224.18 1074.7 219.486 1080.89 215.247C1082.98 213.783 1086.06 211.008 1090.32 207.147C1098.75 199.526 1118.47 181.635 1126.98 181.055C1139.24 180.197 1155.56 194.681 1172.64 210.907C1191.16 228.495 1226.7 261.299 1231.85 266.043C1236.19 272.427 1240.53 282.874 1238.08 286.382C1231.67 295.517 1231.02 296.475 1217.62 296.475H1204.8C1204.8 296.475 848.234 296.425 828.683 296.425C809.131 296.425 793.793 291.378 793.793 291.378C792.077 290.52 790.538 289.561 789.403 288.426L789.201 288.224C788.848 287.871 780.599 279.442 788.571 259.104C791.119 252.619 793.238 248.707 794.928 245.578C801.487 233.491 800.327 230.286 791.194 205.204C780.195 174.973 774.771 156.098 777.571 143.002C780.372 129.956 797.123 100.053 812.714 93.3662C819.121 90.6157 831.256 88.8241 843.012 87.1082C866.171 83.6763 888.069 80.4464 896.747 68.7377C908.049 53.4963 920.209 39.4157 932.773 39.4157C937.692 39.4157 946.598 43.4784 955.478 52.5627C964.358 61.647 969.53 72.0686 969.328 80.4464C969.277 83.0707 968.849 86.5278 967.209 88.0418C964.181 90.7923 954.898 90.1615 945.916 89.5306C942.107 89.2531 938.171 89.0007 934.009 88.8745C898.11 87.8904 874.118 91.6503 860.571 100.407C849.319 107.699 815.085 129.829 827.623 164.981C832.189 177.825 838.093 185.572 846.191 189.331C858.881 195.261 874.547 190.29 893.72 183.174C917.636 174.292 1112.12 90.6409 1216.61 45.699C1252.23 30.3819 1277.96 19.3042 1281.85 17.6892C1289.39 14.5601 1292.95 15.519 1293.63 16.0994C1293.96 16.4022 1294.16 17.7396 1293.58 19.8341C1291.49 27.3791 1283.84 36.7157 1277.08 44.9672C1267.27 56.9029 1258.82 67.2237 1260.43 77.6958C1264.29 102.779 1315.58 124.556 1345.83 135.331C1385.59 149.487 1394.14 160.136 1395.96 164.047C1396.76 165.813 1396.56 166.873 1396.31 167.58M1409.98 157.461C1404.05 144.743 1384.78 132.706 1351.02 120.695C1293.98 100.381 1276.85 82.5913 1275.72 75.2734C1275.16 71.6144 1283.51 61.4451 1289.04 54.7076C1297.14 44.8158 1305.54 34.6212 1308.49 23.8968C1310.66 16.049 1308.97 8.98341 1303.87 4.46651C1300.22 1.23654 1291.74 -3.17942 1275.95 3.38144C1271.99 5.02166 1247.54 15.5443 1210.53 31.467C1106.19 76.3584 911.935 159.908 888.372 168.665C870.788 175.175 859.335 178.355 852.75 175.301C850.177 174.09 846.267 171.163 842.205 159.757C838.295 148.755 837.79 133.564 868.997 113.352C876.338 108.608 893.493 103.157 933.605 104.293C937.44 104.394 941.224 104.671 944.857 104.923C958.202 105.857 969.731 106.639 977.628 99.4476C982.27 95.2335 984.591 89.1269 984.792 80.7996C985.07 68.1574 978.41 53.9253 966.527 41.7625C955.629 30.609 943.015 23.9725 932.773 23.9725C912.414 23.9725 897.101 42.3429 884.335 59.5525C879.466 66.1386 857.089 69.4443 840.742 71.8415C827.447 73.8098 814.883 75.6519 806.634 79.2099C784.408 88.7231 765.79 124.253 762.46 139.822C758.852 156.653 764.402 176.841 776.663 210.553C781.927 225.055 783.483 234.29 781.33 238.26C779.514 241.591 777.041 246.133 774.14 253.527C762.863 282.319 775.982 297.005 778.454 299.428C781.456 302.431 785.241 304.702 789.277 306.443C789.277 306.443 805.599 311.994 825.176 311.994H1217.62C1237.3 311.994 1242.09 307.679 1250.74 295.315C1260.58 281.259 1246.86 260.542 1244.01 256.53L1243.55 255.874L1242.95 255.319C1242.54 254.965 1203.09 218.553 1183.28 199.753C1162.85 180.373 1144.38 164.4 1125.94 165.712C1113.15 166.596 1096.9 180.424 1079.98 195.766C1076.75 198.693 1073.39 201.721 1072.11 202.605C1070.14 203.967 1067.19 206.011 1060.27 197.81C1057.75 194.807 1056.59 190.417 1057.1 185.748C1057.55 181.585 1059.24 178.556 1060.6 177.497C1070.16 170.179 1138.2 145.5 1163.83 144.566C1184.97 143.809 1231.95 159.606 1265.73 173.358C1281.6 179.818 1321.84 191.83 1360.94 191.451C1393.23 191.073 1405.82 186.43 1410.84 173.03C1412.71 168.059 1412.43 162.709 1410.03 157.562" fill="#EE283B"></path></g><defs><clipPath id="clip0_402_2"><rect width="1412" height="477" fill="white"></rect></clipPath></defs></svg>
